<svg width="1200" height="600" viewBox="0 0 1200 600" fill="none" xmlns="http://www.w3.org/2000/svg">
<rect width="1200" height="600" fill="#1E1E1E"/>
<rect width="1200" height="600" rx="66.6667" fill="#32BB78"/>
<rect width="600" height="600" rx="66.6667" fill="white"/>
<g clip-path="url(#clip0_0_1)">
<path d="M789.814 109.388C789.814 107.101 791.656 105.265 793.91 105.247C796.182 105.247 798.006 107.101 798.024 109.37C798.024 111.656 796.199 113.493 793.928 113.511C791.656 113.529 789.814 111.674 789.814 109.388ZM781.264 109.388C781.264 116.427 786.934 122.117 793.928 122.117C800.921 122.117 806.574 116.409 806.574 109.37C806.574 102.33 800.904 96.6409 793.91 96.6409C786.934 96.6409 781.264 102.348 781.264 109.388ZM816.59 109.388C816.59 107.101 818.432 105.265 820.686 105.265C822.957 105.265 824.782 107.119 824.782 109.388C824.782 111.674 822.94 113.511 820.686 113.511C818.432 113.511 816.59 111.674 816.59 109.388ZM808.04 109.388C808.04 116.427 813.71 122.135 820.704 122.135C827.697 122.135 833.367 116.427 833.367 109.388C833.367 102.348 827.697 96.6409 820.704 96.6409C813.71 96.6409 808.04 102.348 808.04 109.388ZM759.622 86.6847V121.775H767.814V108.362H779.029V100.098H767.814V94.9486H781.515V86.6847H759.622ZM843.223 109.208C843.223 106.903 845.083 105.031 847.372 105.031C849.662 105.031 851.522 106.903 851.522 109.208C851.522 111.512 849.662 113.385 847.372 113.385C845.083 113.385 843.223 111.512 843.223 109.208ZM851.808 86.6847V98.7294C850.341 97.3611 848.428 96.6229 846.424 96.6409C840.021 96.6409 834.816 102.258 834.816 109.208C834.816 116.157 840.021 121.775 846.424 121.775C848.428 121.793 850.359 121.037 851.808 119.65V121.775H860V86.6847H851.808Z" fill="#2F313F"/>
<path fill-rule="evenodd" clip-rule="evenodd" d="M730.181 86.6847L721.971 88.4491V121.775H730.181V86.6847Z" fill="white"/>
<path fill-rule="evenodd" clip-rule="evenodd" d="M706.821 113.511C704.55 113.511 702.726 111.656 702.726 109.388C702.726 107.101 704.568 105.265 706.821 105.265C709.093 105.265 710.917 107.119 710.917 109.388C710.935 111.674 709.093 113.511 706.821 113.511ZM706.821 96.6409C699.828 96.6409 694.158 102.348 694.158 109.388C694.158 116.427 699.828 122.135 706.821 122.135C713.815 122.135 719.485 116.427 719.485 109.388C719.485 102.348 713.815 96.6409 706.821 96.6409Z" fill="white"/>
<path fill-rule="evenodd" clip-rule="evenodd" d="M706.821 125.087C709.093 125.087 710.917 126.942 710.917 129.21C710.917 131.497 709.075 133.333 706.821 133.333C704.55 133.333 702.726 131.479 702.726 129.21C702.726 126.942 704.568 125.087 706.821 125.087Z" fill="white"/>
<path fill-rule="evenodd" clip-rule="evenodd" d="M681.029 113.511H674.877V108.344H681.029C682.442 108.344 683.587 109.496 683.587 110.918C683.587 112.359 682.442 113.511 681.029 113.511ZM674.877 94.9306H679.438C680.851 94.9306 681.995 96.0828 681.995 97.5051C681.995 98.9275 680.851 100.08 679.438 100.08H674.877V94.9306ZM688.577 103.212C691.708 98.1173 690.134 91.4378 685.072 88.287C683.373 87.2248 681.423 86.6667 679.42 86.6667H666.667V121.739H681.012C686.95 121.739 691.779 116.878 691.779 110.9C691.779 108.02 690.616 105.247 688.577 103.212Z" fill="white"/>
<path fill-rule="evenodd" clip-rule="evenodd" d="M745.688 105.373V97.1271H741.575V90.8256L733.383 92.572V113.925C733.383 118.966 736.495 121.865 741.074 122.099C741.127 122.099 741.181 122.117 741.217 122.117H741.288C741.396 122.117 741.485 122.135 741.593 122.135H741.7C743.095 122.135 744.472 121.775 745.688 121.109V115.023C745.098 115.185 744.472 115.257 743.864 115.257C742.219 115.257 741.593 113.817 741.593 111.854V105.373H745.688Z" fill="white"/>
</g>
<path d="M679.06 283.187C676.633 283.187 674.423 282.71 672.43 281.757C670.466 280.774 668.934 279.417 667.837 277.683L672.647 273.653C673.398 274.78 674.366 275.676 675.55 276.34C676.763 276.976 678.02 277.293 679.32 277.293C680.562 277.293 681.559 277.019 682.31 276.47C683.061 275.921 683.437 275.199 683.437 274.303C683.437 273.437 683.104 272.686 682.44 272.05C681.776 271.414 680.678 270.837 679.147 270.317L676.547 269.407C671.491 267.644 668.963 264.712 668.963 260.61C668.963 257.779 669.931 255.54 671.867 253.893C673.802 252.218 676.301 251.38 679.363 251.38C683.292 251.38 686.528 252.796 689.07 255.627L684.91 259.917C683.437 258.154 681.602 257.273 679.407 257.273C678.28 257.273 677.312 257.519 676.503 258.01C675.694 258.472 675.29 259.137 675.29 260.003C675.29 260.899 675.637 261.607 676.33 262.127C677.052 262.647 678.294 263.224 680.057 263.86L682.527 264.77C687.409 266.59 689.85 269.638 689.85 273.913C689.85 276.658 688.839 278.897 686.817 280.63C684.823 282.334 682.238 283.187 679.06 283.187ZM708.848 282.667L700.008 272.7V282.667H694.071V250.167H700.008V268.973L707.028 261H714.178L705.598 270.75L716.171 282.667H708.848ZM725.677 283.143C722.817 283.143 720.405 282.031 718.44 279.807C716.476 277.582 715.494 274.924 715.494 271.833C715.494 268.742 716.476 266.084 718.44 263.86C720.405 261.636 722.817 260.523 725.677 260.523C727.064 260.523 728.306 260.812 729.404 261.39C730.501 261.968 731.339 262.647 731.917 263.427V261H737.854V282.667H731.917V280.24C731.339 281.02 730.501 281.699 729.404 282.277C728.306 282.854 727.064 283.143 725.677 283.143ZM722.947 276.08C723.958 277.178 725.287 277.727 726.934 277.727C728.58 277.727 729.895 277.178 730.877 276.08C731.888 274.982 732.394 273.567 732.394 271.833C732.394 270.1 731.888 268.684 730.877 267.587C729.895 266.489 728.58 265.94 726.934 265.94C725.287 265.94 723.958 266.489 722.947 267.587C721.965 268.684 721.474 270.1 721.474 271.833C721.474 273.567 721.965 274.982 722.947 276.08ZM743.625 282.667V261H749.562V263.47C750.891 261.506 752.956 260.523 755.758 260.523C758.358 260.523 760.395 261.39 761.868 263.123C763.371 264.828 764.122 267.11 764.122 269.97V282.667H758.185V270.967C758.185 269.378 757.853 268.15 757.188 267.283C756.524 266.388 755.585 265.94 754.372 265.94C752.927 265.94 751.757 266.46 750.862 267.5C749.995 268.54 749.562 270.071 749.562 272.093V282.667H743.625ZM779.662 283.143C776.369 283.143 773.625 282.103 771.429 280.023C769.262 277.943 768.179 275.213 768.179 271.833C768.179 268.598 769.262 265.911 771.429 263.773C773.596 261.607 776.311 260.523 779.576 260.523C782.58 260.523 785.108 261.462 787.159 263.34C789.21 265.189 790.236 267.803 790.236 271.183C790.236 272.137 790.207 272.816 790.149 273.22H773.942C774.116 274.636 774.737 275.748 775.806 276.557C776.904 277.337 778.204 277.727 779.706 277.727C782.248 277.727 784.111 276.817 785.296 274.997L789.716 278.29C787.491 281.526 784.14 283.143 779.662 283.143ZM774.159 269.19H784.299C784.039 267.948 783.447 267.009 782.522 266.373C781.627 265.738 780.587 265.42 779.402 265.42C778.189 265.42 777.077 265.738 776.066 266.373C775.055 267.009 774.419 267.948 774.159 269.19ZM804.715 283.143C801.421 283.143 798.677 282.103 796.481 280.023C794.315 277.943 793.231 275.213 793.231 271.833C793.231 268.598 794.315 265.911 796.481 263.773C798.648 261.607 801.363 260.523 804.628 260.523C807.632 260.523 810.16 261.462 812.211 263.34C814.262 265.189 815.288 267.803 815.288 271.183C815.288 272.137 815.259 272.816 815.201 273.22H798.995C799.168 274.636 799.789 275.748 800.858 276.557C801.956 277.337 803.256 277.727 804.758 277.727C807.3 277.727 809.163 276.817 810.348 274.997L814.768 278.29C812.543 281.526 809.192 283.143 804.715 283.143ZM799.211 269.19H809.351C809.091 267.948 808.499 267.009 807.575 266.373C806.679 265.738 805.639 265.42 804.455 265.42C803.241 265.42 802.129 265.738 801.118 266.373C800.107 267.009 799.471 267.948 799.211 269.19ZM819.67 282.667V261H825.607V264.467C825.982 263.398 826.661 262.517 827.643 261.823C828.654 261.101 829.767 260.74 830.98 260.74C831.731 260.74 832.395 260.827 832.973 261V267.023C832.02 266.706 831.124 266.547 830.287 266.547C828.871 266.547 827.73 267.067 826.863 268.107C826.025 269.118 825.607 270.519 825.607 272.31V282.667H819.67ZM839.713 257.447C838.702 257.447 837.821 257.086 837.07 256.363C836.319 255.612 835.943 254.717 835.943 253.677C835.943 252.637 836.319 251.756 837.07 251.033C837.821 250.282 838.702 249.907 839.713 249.907C840.782 249.907 841.677 250.282 842.4 251.033C843.151 251.756 843.526 252.637 843.526 253.677C843.526 254.717 843.151 255.612 842.4 256.363C841.677 257.086 840.782 257.447 839.713 257.447ZM836.766 282.667V261H842.703V282.667H836.766ZM855.077 281.453L850.224 289.253H846.714L849.877 282.667C849.155 282.378 848.548 281.872 848.057 281.15C847.566 280.428 847.32 279.604 847.32 278.68C847.32 277.467 847.739 276.441 848.577 275.603C849.415 274.766 850.44 274.347 851.654 274.347C852.867 274.347 853.878 274.766 854.687 275.603C855.525 276.441 855.944 277.467 855.944 278.68C855.944 279.576 855.655 280.5 855.077 281.453ZM880.261 282.927C877.834 282.927 875.841 282.262 874.281 280.933C872.75 279.576 871.984 277.626 871.984 275.083V266.2H867.607V261H871.984V254.977H877.921V261H884.031V266.2H877.921V273.913C877.921 275.242 878.21 276.196 878.787 276.773C879.365 277.322 880.304 277.597 881.604 277.597C882.529 277.597 883.337 277.467 884.031 277.207V282.45C882.991 282.768 881.734 282.927 880.261 282.927ZM898.067 283.143C894.774 283.143 892.03 282.103 889.834 280.023C887.667 277.943 886.584 275.213 886.584 271.833C886.584 268.598 887.667 265.911 889.834 263.773C892.001 261.607 894.716 260.523 897.981 260.523C900.985 260.523 903.513 261.462 905.564 263.34C907.615 265.189 908.641 267.803 908.641 271.183C908.641 272.137 908.612 272.816 908.554 273.22H892.347C892.521 274.636 893.142 275.748 894.211 276.557C895.308 277.337 896.608 277.727 898.111 277.727C900.653 277.727 902.516 276.817 903.701 274.997L908.121 278.29C905.896 281.526 902.545 283.143 898.067 283.143ZM892.564 269.19H902.704C902.444 267.948 901.852 267.009 900.927 266.373C900.032 265.738 898.992 265.42 897.807 265.42C896.594 265.42 895.482 265.738 894.471 266.373C893.46 267.009 892.824 267.948 892.564 269.19ZM913.023 282.667V250.167H918.959V282.667H913.023ZM924.66 282.667V250.167H930.597V282.667H924.66ZM939.244 257.447C938.233 257.447 937.352 257.086 936.601 256.363C935.85 255.612 935.474 254.717 935.474 253.677C935.474 252.637 935.85 251.756 936.601 251.033C937.352 250.282 938.233 249.907 939.244 249.907C940.313 249.907 941.209 250.282 941.931 251.033C942.682 251.756 943.058 252.637 943.058 253.677C943.058 254.717 942.682 255.612 941.931 256.363C941.209 257.086 940.313 257.447 939.244 257.447ZM936.298 282.667V261H942.234V282.667H936.298ZM964.078 261V284.313C964.078 286.856 963.313 288.791 961.782 290.12C960.25 291.478 958.329 292.157 956.018 292.157C954.978 292.157 954.169 292.099 953.592 291.983V286.913C953.996 286.971 954.372 287 954.718 287C957 287 958.142 285.787 958.142 283.36V261H964.078ZM961.088 257.447C960.077 257.447 959.196 257.086 958.445 256.363C957.694 255.612 957.318 254.717 957.318 253.677C957.318 252.637 957.694 251.756 958.445 251.033C959.196 250.282 960.077 249.907 961.088 249.907C962.157 249.907 963.053 250.282 963.775 251.033C964.526 251.756 964.902 252.637 964.902 253.677C964.902 254.717 964.526 255.612 963.775 256.363C963.053 257.086 962.157 257.447 961.088 257.447ZM978.61 283.143C975.75 283.143 973.338 282.031 971.373 279.807C969.409 277.582 968.426 274.924 968.426 271.833C968.426 268.742 969.409 266.084 971.373 263.86C973.338 261.636 975.75 260.523 978.61 260.523C979.996 260.523 981.239 260.812 982.336 261.39C983.434 261.968 984.272 262.647 984.85 263.427V261H990.786V282.667H984.85V280.24C984.272 281.02 983.434 281.699 982.336 282.277C981.239 282.854 979.996 283.143 978.61 283.143ZM975.88 276.08C976.891 277.178 978.22 277.727 979.866 277.727C981.513 277.727 982.828 277.178 983.81 276.08C984.821 274.982 985.326 273.567 985.326 271.833C985.326 270.1 984.821 268.684 983.81 267.587C982.828 266.489 981.513 265.94 979.866 265.94C978.22 265.94 976.891 266.489 975.88 267.587C974.898 268.684 974.406 270.1 974.406 271.833C974.406 273.567 974.898 274.982 975.88 276.08ZM1033.72 282.667V271.097C1033.72 267.659 1032.59 265.94 1030.34 265.94C1029.04 265.94 1028 266.431 1027.22 267.413C1026.47 268.396 1026.06 269.854 1026 271.79V282.667H1020.07V271.097C1020.07 267.659 1018.94 265.94 1016.69 265.94C1015.36 265.94 1014.3 266.46 1013.52 267.5C1012.74 268.54 1012.35 270.071 1012.35 272.093V282.667H1006.42V261H1012.35V263.47C1013.71 261.506 1015.63 260.523 1018.12 260.523C1021.15 260.523 1023.39 261.852 1024.83 264.51C1025.47 263.268 1026.42 262.3 1027.69 261.607C1028.97 260.884 1030.25 260.523 1031.55 260.523C1034.12 260.523 1036.12 261.376 1037.53 263.08C1038.95 264.784 1039.65 267.124 1039.65 270.1V282.667H1033.72ZM1053.89 283.143C1051.03 283.143 1048.62 282.031 1046.66 279.807C1044.69 277.582 1043.71 274.924 1043.71 271.833C1043.71 268.742 1044.69 266.084 1046.66 263.86C1048.62 261.636 1051.03 260.523 1053.89 260.523C1055.28 260.523 1056.52 260.812 1057.62 261.39C1058.72 261.968 1059.56 262.647 1060.13 263.427V261H1066.07V282.667H1060.13V280.24C1059.56 281.02 1058.72 281.699 1057.62 282.277C1056.52 282.854 1055.28 283.143 1053.89 283.143ZM1051.16 276.08C1052.17 277.178 1053.5 277.727 1055.15 277.727C1056.8 277.727 1058.11 277.178 1059.09 276.08C1060.1 274.982 1060.61 273.567 1060.61 271.833C1060.61 270.1 1060.1 268.684 1059.09 267.587C1058.11 266.489 1056.8 265.94 1055.15 265.94C1053.5 265.94 1052.17 266.489 1051.16 267.587C1050.18 268.684 1049.69 270.1 1049.69 271.833C1049.69 273.567 1050.18 274.982 1051.16 276.08ZM1086.62 282.667L1077.78 272.7V282.667H1071.84V250.167H1077.78V268.973L1084.8 261H1091.95L1083.37 270.75L1093.94 282.667H1086.62ZM1102.78 283.143C1098.67 283.143 1095.7 281.757 1093.85 278.983L1097.92 275.517C1098.96 277.192 1100.58 278.03 1102.78 278.03C1103.44 278.03 1104 277.9 1104.47 277.64C1104.93 277.38 1105.16 276.99 1105.16 276.47C1105.16 276.008 1104.96 275.632 1104.55 275.343C1104.18 275.026 1103.41 274.708 1102.26 274.39L1100.65 274C1098.66 273.48 1097.14 272.613 1096.1 271.4C1095.09 270.187 1094.62 268.742 1094.67 267.067C1094.73 265.102 1095.51 263.528 1097.01 262.343C1098.54 261.13 1100.48 260.523 1102.82 260.523C1106.14 260.523 1108.64 261.737 1110.32 264.163L1106.42 267.327C1105.41 266.056 1104.18 265.42 1102.73 265.42C1102.16 265.42 1101.65 265.55 1101.22 265.81C1100.78 266.07 1100.57 266.431 1100.57 266.893C1100.57 267.76 1101.27 268.381 1102.69 268.757L1104.73 269.363C1108.92 270.49 1111.01 272.729 1111.01 276.08C1111.01 278.131 1110.23 279.821 1108.67 281.15C1107.11 282.479 1105.15 283.143 1102.78 283.143ZM1124.18 283.143C1121.32 283.143 1118.91 282.031 1116.95 279.807C1114.98 277.582 1114 274.924 1114 271.833C1114 268.742 1114.98 266.084 1116.95 263.86C1118.91 261.636 1121.32 260.523 1124.18 260.523C1125.57 260.523 1126.81 260.812 1127.91 261.39C1129.01 261.968 1129.84 262.647 1130.42 263.427V261H1136.36V282.667H1130.42V280.24C1129.84 281.02 1129.01 281.699 1127.91 282.277C1126.81 282.854 1125.57 283.143 1124.18 283.143ZM1121.45 276.08C1122.46 277.178 1123.79 277.727 1125.44 277.727C1127.09 277.727 1128.4 277.178 1129.38 276.08C1130.39 274.982 1130.9 273.567 1130.9 271.833C1130.9 270.1 1130.39 268.684 1129.38 267.587C1128.4 266.489 1127.09 265.94 1125.44 265.94C1123.79 265.94 1122.46 266.489 1121.45 267.587C1120.47 268.684 1119.98 270.1 1119.98 271.833C1119.98 273.567 1120.47 274.982 1121.45 276.08Z" fill="white"/>
<path d="M678.542 345.833C676.181 345.833 674.056 345.333 672.167 344.333C670.306 343.333 668.972 342.056 668.167 340.5L671.292 338.167C673.042 340.861 675.486 342.208 678.625 342.208C680.208 342.208 681.514 341.819 682.542 341.042C683.569 340.236 684.083 339.153 684.083 337.792C684.083 335.514 682.667 333.847 679.833 332.792L675.917 331.292C673.583 330.431 671.875 329.361 670.792 328.083C669.736 326.778 669.208 325.125 669.208 323.125C669.208 320.736 670.069 318.833 671.792 317.417C673.542 315.972 675.764 315.25 678.458 315.25C680.264 315.25 681.917 315.625 683.417 316.375C684.917 317.097 686.139 318.069 687.083 319.292L684.25 321.792C682.611 319.847 680.653 318.875 678.375 318.875C676.875 318.875 675.611 319.264 674.583 320.042C673.556 320.792 673.042 321.764 673.042 322.958C673.042 324.153 673.389 325.097 674.083 325.792C674.778 326.486 675.917 327.125 677.5 327.708L681.083 329.083C683.361 329.944 685.069 331.056 686.208 332.417C687.375 333.778 687.958 335.514 687.958 337.625C687.958 340.097 687.069 342.083 685.292 343.583C683.542 345.083 681.292 345.833 678.542 345.833ZM702.405 345.75C699.266 345.75 696.655 344.708 694.571 342.625C692.516 340.542 691.488 337.972 691.488 334.917C691.488 331.861 692.516 329.292 694.571 327.208C696.655 325.125 699.266 324.083 702.405 324.083C704.516 324.083 706.405 324.583 708.071 325.583C709.766 326.583 711.085 327.944 712.03 329.667L708.905 331.417C708.294 330.194 707.419 329.222 706.28 328.5C705.169 327.778 703.877 327.417 702.405 327.417C700.266 327.417 698.516 328.139 697.155 329.583C695.794 331.028 695.113 332.806 695.113 334.917C695.113 337.028 695.794 338.806 697.155 340.25C698.516 341.694 700.266 342.417 702.405 342.417C703.877 342.417 705.169 342.056 706.28 341.333C707.419 340.611 708.294 339.639 708.905 338.417L712.03 340.167C711.085 341.889 709.766 343.25 708.071 344.25C706.405 345.25 704.516 345.75 702.405 345.75ZM725.256 345.75C722.367 345.75 719.936 344.694 717.964 342.583C716.02 340.472 715.048 337.917 715.048 334.917C715.048 331.917 716.02 329.361 717.964 327.25C719.936 325.139 722.367 324.083 725.256 324.083C726.784 324.083 728.2 324.431 729.506 325.125C730.839 325.792 731.867 326.653 732.589 327.708V324.5H736.173V345.333H732.589V342.125C731.867 343.181 730.839 344.056 729.506 344.75C728.2 345.417 726.784 345.75 725.256 345.75ZM725.798 342.458C727.853 342.458 729.548 341.736 730.881 340.292C732.214 338.847 732.881 337.056 732.881 334.917C732.881 332.778 732.214 330.986 730.881 329.542C729.548 328.097 727.853 327.375 725.798 327.375C723.714 327.375 722.006 328.097 720.673 329.542C719.339 330.986 718.673 332.778 718.673 334.917C718.673 337.056 719.339 338.847 720.673 340.292C722.006 341.736 723.714 342.458 725.798 342.458ZM742.918 345.333V324.5H746.501V327.708C747.918 325.292 750.126 324.083 753.126 324.083C755.487 324.083 757.39 324.847 758.834 326.375C760.279 327.903 761.001 329.944 761.001 332.5V345.333H757.459V333.042C757.459 331.292 757.015 329.917 756.126 328.917C755.237 327.889 754.043 327.375 752.543 327.375C750.82 327.375 749.376 328.056 748.209 329.417C747.07 330.778 746.501 332.639 746.501 335V345.333H742.918ZM771.912 344.417L767.62 351.292H765.245L768.037 345.333C766.898 344.778 766.329 343.847 766.329 342.542C766.329 341.708 766.634 340.986 767.245 340.375C767.857 339.736 768.579 339.417 769.412 339.417C770.245 339.417 770.968 339.736 771.579 340.375C772.19 340.986 772.495 341.708 772.495 342.542C772.495 343.153 772.301 343.778 771.912 344.417ZM797.415 345.75C794.276 345.75 791.665 344.708 789.582 342.625C787.526 340.514 786.498 337.944 786.498 334.917C786.498 331.889 787.526 329.333 789.582 327.25C791.665 325.139 794.276 324.083 797.415 324.083C800.526 324.083 803.11 325.139 805.165 327.25C807.248 329.333 808.29 331.889 808.29 334.917C808.29 337.944 807.248 340.514 805.165 342.625C803.11 344.708 800.526 345.75 797.415 345.75ZM792.165 340.25C793.526 341.694 795.276 342.417 797.415 342.417C799.554 342.417 801.29 341.694 802.623 340.25C803.957 338.806 804.623 337.028 804.623 334.917C804.623 332.806 803.957 331.028 802.623 329.583C801.29 328.139 799.554 327.417 797.415 327.417C795.276 327.417 793.526 328.139 792.165 329.583C790.832 331.028 790.165 332.806 790.165 334.917C790.165 337.028 790.832 338.806 792.165 340.25ZM813.434 345.333V324.5H817.017V328.542C817.406 327.264 818.156 326.236 819.267 325.458C820.406 324.681 821.6 324.292 822.85 324.292C823.461 324.292 824.003 324.347 824.475 324.458V328.167C823.975 327.944 823.323 327.833 822.517 327.833C821.073 327.833 819.795 328.458 818.684 329.708C817.573 330.958 817.017 332.722 817.017 335V345.333H813.434ZM836.584 345.75C833.695 345.75 831.265 344.694 829.292 342.583C827.348 340.472 826.376 337.917 826.376 334.917C826.376 331.917 827.348 329.361 829.292 327.25C831.265 325.139 833.695 324.083 836.584 324.083C838.112 324.083 839.528 324.431 840.834 325.125C842.167 325.792 843.195 326.653 843.917 327.708V314.083H847.501V345.333H843.917V342.125C843.195 343.181 842.167 344.056 840.834 344.75C839.528 345.417 838.112 345.75 836.584 345.75ZM837.126 342.458C839.181 342.458 840.876 341.736 842.209 340.292C843.542 338.847 844.209 337.056 844.209 334.917C844.209 332.778 843.542 330.986 842.209 329.542C840.876 328.097 839.181 327.375 837.126 327.375C835.042 327.375 833.334 328.097 832.001 329.542C830.667 330.986 830.001 332.778 830.001 334.917C830.001 337.056 830.667 338.847 832.001 340.292C833.334 341.736 835.042 342.458 837.126 342.458ZM863.412 345.75C860.218 345.75 857.621 344.722 855.621 342.667C853.621 340.611 852.621 338.028 852.621 334.917C852.621 331.833 853.635 329.264 855.662 327.208C857.69 325.125 860.287 324.083 863.454 324.083C866.26 324.083 868.607 325.028 870.496 326.917C872.412 328.778 873.371 331.319 873.371 334.542C873.371 334.958 873.357 335.319 873.329 335.625H856.246C856.301 337.569 856.996 339.194 858.329 340.5C859.69 341.806 861.399 342.458 863.454 342.458C866.371 342.458 868.537 341.25 869.954 338.833L872.787 340.792C870.76 344.097 867.635 345.75 863.412 345.75ZM856.496 332.708H869.704C869.426 331.042 868.69 329.722 867.496 328.75C866.329 327.75 864.94 327.25 863.329 327.25C861.69 327.25 860.218 327.75 858.912 328.75C857.635 329.722 856.829 331.042 856.496 332.708ZM878.456 345.333V324.5H882.04V328.542C882.429 327.264 883.179 326.236 884.29 325.458C885.429 324.681 886.623 324.292 887.873 324.292C888.484 324.292 889.026 324.347 889.498 324.458V328.167C888.998 327.944 888.345 327.833 887.54 327.833C886.095 327.833 884.818 328.458 883.706 329.708C882.595 330.958 882.04 332.722 882.04 335V345.333H878.456ZM911.291 345.75C908.402 345.75 905.972 344.694 903.999 342.583C902.055 340.472 901.083 337.917 901.083 334.917C901.083 331.917 902.055 329.361 903.999 327.25C905.972 325.139 908.402 324.083 911.291 324.083C912.819 324.083 914.235 324.431 915.541 325.125C916.874 325.792 917.902 326.653 918.624 327.708V324.5H922.208V345.333H918.624V342.125C917.902 343.181 916.874 344.056 915.541 344.75C914.235 345.417 912.819 345.75 911.291 345.75ZM911.833 342.458C913.888 342.458 915.583 341.736 916.916 340.292C918.249 338.847 918.916 337.056 918.916 334.917C918.916 332.778 918.249 330.986 916.916 329.542C915.583 328.097 913.888 327.375 911.833 327.375C909.749 327.375 908.041 328.097 906.708 329.542C905.374 330.986 904.708 332.778 904.708 334.917C904.708 337.056 905.374 338.847 906.708 340.292C908.041 341.736 909.749 342.458 911.833 342.458ZM928.953 345.333V324.5H932.536V327.708C933.953 325.292 936.161 324.083 939.161 324.083C941.522 324.083 943.425 324.847 944.869 326.375C946.314 327.903 947.036 329.944 947.036 332.5V345.333H943.494V333.042C943.494 331.292 943.05 329.917 942.161 328.917C941.272 327.889 940.078 327.375 938.578 327.375C936.856 327.375 935.411 328.056 934.244 329.417C933.106 330.778 932.536 332.639 932.536 335V345.333H928.953ZM962.072 345.75C959.183 345.75 956.753 344.694 954.781 342.583C952.836 340.472 951.864 337.917 951.864 334.917C951.864 331.917 952.836 329.361 954.781 327.25C956.753 325.139 959.183 324.083 962.072 324.083C963.6 324.083 965.017 324.431 966.322 325.125C967.656 325.792 968.683 326.653 969.406 327.708V314.083H972.989V345.333H969.406V342.125C968.683 343.181 967.656 344.056 966.322 344.75C965.017 345.417 963.6 345.75 962.072 345.75ZM962.614 342.458C964.67 342.458 966.364 341.736 967.697 340.292C969.031 338.847 969.697 337.056 969.697 334.917C969.697 332.778 969.031 330.986 967.697 329.542C966.364 328.097 964.67 327.375 962.614 327.375C960.531 327.375 958.822 328.097 957.489 329.542C956.156 330.986 955.489 332.778 955.489 334.917C955.489 337.056 956.156 338.847 957.489 340.292C958.822 341.736 960.531 342.458 962.614 342.458ZM993.368 354.042H989.785V324.5H993.368V327.708C994.09 326.653 995.104 325.792 996.41 325.125C997.743 324.431 999.173 324.083 1000.7 324.083C1003.59 324.083 1006.01 325.139 1007.95 327.25C1009.92 329.361 1010.91 331.917 1010.91 334.917C1010.91 337.917 1009.92 340.472 1007.95 342.583C1006.01 344.694 1003.59 345.75 1000.7 345.75C999.173 345.75 997.743 345.417 996.41 344.75C995.104 344.056 994.09 343.181 993.368 342.125V354.042ZM995.076 340.292C996.41 341.736 998.104 342.458 1000.16 342.458C1002.22 342.458 1003.91 341.736 1005.24 340.292C1006.58 338.847 1007.24 337.056 1007.24 334.917C1007.24 332.778 1006.58 330.986 1005.24 329.542C1003.91 328.097 1002.22 327.375 1000.16 327.375C998.104 327.375 996.41 328.097 995.076 329.542C993.743 330.986 993.076 332.778 993.076 334.917C993.076 337.056 993.743 338.847 995.076 340.292ZM1024.65 345.75C1021.76 345.75 1019.33 344.694 1017.36 342.583C1015.42 340.472 1014.45 337.917 1014.45 334.917C1014.45 331.917 1015.42 329.361 1017.36 327.25C1019.33 325.139 1021.76 324.083 1024.65 324.083C1026.18 324.083 1027.6 324.431 1028.9 325.125C1030.24 325.792 1031.26 326.653 1031.99 327.708V324.5H1035.57V345.333H1031.99V342.125C1031.26 343.181 1030.24 344.056 1028.9 344.75C1027.6 345.417 1026.18 345.75 1024.65 345.75ZM1025.2 342.458C1027.25 342.458 1028.95 341.736 1030.28 340.292C1031.61 338.847 1032.28 337.056 1032.28 334.917C1032.28 332.778 1031.61 330.986 1030.28 329.542C1028.95 328.097 1027.25 327.375 1025.2 327.375C1023.11 327.375 1021.4 328.097 1020.07 329.542C1018.74 330.986 1018.07 332.778 1018.07 334.917C1018.07 337.056 1018.74 338.847 1020.07 340.292C1021.4 341.736 1023.11 342.458 1025.2 342.458ZM1047.86 354.042H1043.86L1048.4 344.25L1039.27 324.5H1043.23L1050.4 340.333L1057.52 324.5H1061.52L1047.86 354.042Z" fill="white"/>
<rect x="666.667" y="460" width="73.3333" height="53.3333" rx="8.33333" fill="white"/>
<path d="M699.722 494.76H695.334L698.079 478.626H702.466L699.722 494.76Z" fill="#00579F"/>
<path d="M715.629 479.02C714.764 478.694 713.391 478.333 711.694 478.333C707.36 478.333 704.309 480.53 704.29 483.671C704.254 485.988 706.475 487.275 708.136 488.048C709.834 488.837 710.411 489.353 710.411 490.057C710.393 491.137 709.039 491.636 707.776 491.636C706.024 491.636 705.085 491.379 703.659 490.777L703.081 490.52L702.467 494.141C703.496 494.587 705.392 494.983 707.36 495C711.964 495 714.962 492.837 714.997 489.49C715.015 487.654 713.842 486.246 711.314 485.096C709.78 484.358 708.84 483.86 708.84 483.105C708.858 482.418 709.635 481.715 711.367 481.715C712.793 481.681 713.842 482.007 714.636 482.333L715.032 482.504L715.629 479.02Z" fill="#00579F"/>
<path d="M721.46 489.044C721.822 488.117 723.212 484.53 723.212 484.53C723.194 484.564 723.573 483.586 723.79 482.985L724.096 484.375C724.096 484.375 724.927 488.237 725.108 489.044C724.422 489.044 722.327 489.044 721.46 489.044ZM726.877 478.626H723.483C722.436 478.626 721.641 478.917 721.189 479.964L714.672 494.759H719.276C719.276 494.759 720.034 492.768 720.197 492.339C720.702 492.339 725.181 492.339 725.83 492.339C725.956 492.906 726.354 494.759 726.354 494.759H730.417L726.877 478.626Z" fill="#00579F"/>
<path d="M691.67 478.626L687.372 489.627L686.903 487.396C686.108 484.822 683.617 482.024 680.836 480.634L684.772 494.742H689.412L696.309 478.626H691.67Z" fill="#00579F"/>
<path d="M683.382 478.626H676.322L676.25 478.952C681.757 480.291 685.404 483.518 686.903 487.397L685.368 479.982C685.115 478.952 684.339 478.66 683.382 478.626Z" fill="#FAA61A"/>
<rect x="780" y="460" width="73.3333" height="53.3333" rx="6.66667" fill="white"/>
<path d="M816.667 476.337C813.154 478.588 810.848 482.375 810.848 486.667C810.848 490.959 813.154 494.745 816.667 496.996C814.529 498.366 811.944 499.167 809.16 499.167C801.8 499.167 795.833 493.57 795.833 486.667C795.833 479.763 801.8 474.167 809.16 474.167C811.944 474.167 814.529 474.968 816.667 476.337Z" fill="#C52107"/>
<path d="M816.667 496.996C820.18 494.745 822.486 490.959 822.486 486.667C822.486 482.375 820.18 478.588 816.667 476.337C818.805 474.968 821.389 474.167 824.174 474.167C831.534 474.167 837.5 479.763 837.5 486.667C837.5 493.57 831.534 499.167 824.174 499.167C821.389 499.167 818.805 498.366 816.667 496.996Z" fill="#F29A27"/>
<path d="M816.667 496.996C820.18 494.745 822.486 490.959 822.486 486.667C822.486 482.375 820.18 478.588 816.667 476.337C813.153 478.588 810.847 482.375 810.847 486.667C810.847 490.959 813.153 494.745 816.667 496.996Z" fill="#ED4911"/>
<rect x="893.333" y="460" width="73.3333" height="53.3333" rx="6.66667" fill="white"/>
<path d="M914.45 478.937C915.038 478.213 915.438 477.242 915.333 476.25C914.471 476.292 913.419 476.808 912.81 477.532C912.264 478.152 911.78 479.164 911.906 480.114C912.873 480.197 913.84 479.639 914.45 478.937Z" fill="black"/>
<path d="M915.322 480.3C913.917 480.218 912.722 481.083 912.052 481.083C911.38 481.083 910.353 480.341 909.242 480.361C907.796 480.382 906.454 481.185 905.72 482.463C904.21 485.018 905.322 488.809 906.789 490.89C907.502 491.92 908.361 493.053 909.493 493.013C910.563 492.971 910.982 492.332 912.282 492.332C913.581 492.332 913.959 493.013 915.091 492.992C916.265 492.971 916.999 491.962 917.712 490.931C918.53 489.757 918.864 488.624 918.885 488.562C918.864 488.541 916.622 487.696 916.601 485.162C916.58 483.04 918.362 482.031 918.446 481.968C917.439 480.506 915.867 480.341 915.322 480.3Z" fill="black"/>
<path d="M927.554 477.428C930.607 477.428 932.733 479.495 932.733 482.505C932.733 485.525 930.563 487.603 927.477 487.603H924.096V492.884H921.654V477.428L927.554 477.428ZM924.096 485.59H926.899C929.026 485.59 930.236 484.465 930.236 482.516C930.236 480.566 929.026 479.452 926.91 479.452H924.096V485.59Z" fill="black"/>
<path d="M933.371 489.682C933.371 487.711 934.909 486.5 937.635 486.35L940.776 486.168V485.301C940.776 484.048 939.914 483.298 938.475 483.298C937.111 483.298 936.261 483.94 936.054 484.947H933.829C933.96 482.912 935.727 481.413 938.562 481.413C941.343 481.413 943.12 482.859 943.12 485.119V492.884H940.863V491.031H940.808C940.143 492.284 938.693 493.077 937.188 493.077C934.942 493.077 933.371 491.706 933.371 489.682ZM940.776 488.664V487.775L937.951 487.946C936.544 488.043 935.748 488.653 935.748 489.617C935.748 490.603 936.577 491.245 937.842 491.245C939.489 491.245 940.776 490.131 940.776 488.664Z" fill="black"/>
<path d="M945.251 497.03V495.155C945.425 495.198 945.818 495.198 946.014 495.198C947.105 495.198 947.694 494.748 948.053 493.592C948.053 493.57 948.261 492.906 948.261 492.895L944.117 481.617H946.668L949.569 490.785H949.613L952.514 481.617H955L950.703 493.474C949.722 496.205 948.588 497.083 946.211 497.083C946.014 497.083 945.425 497.062 945.251 497.03Z" fill="black"/>
<rect x="1006.67" y="460" width="73.3333" height="53.3333" rx="6.66667" fill="white"/>
<path d="M1041.67 486.399V492.183H1039.83V477.9H1044.7C1045.93 477.9 1046.98 478.311 1047.85 479.133C1048.72 479.955 1049.16 480.959 1049.16 482.145C1049.16 483.359 1048.72 484.363 1047.85 485.175C1046.99 485.988 1045.94 486.389 1044.7 486.389H1041.67V486.399ZM1041.67 479.659V484.64H1044.74C1045.46 484.64 1046.08 484.391 1046.55 483.904C1047.04 483.416 1047.29 482.823 1047.29 482.154C1047.29 481.495 1047.04 480.911 1046.55 480.424C1046.08 479.917 1045.47 479.669 1044.74 479.669H1041.67V479.659Z" fill="black"/>
<path d="M1053.96 482.087C1055.32 482.087 1056.39 482.451 1057.18 483.177C1057.96 483.904 1058.35 484.898 1058.35 486.16V492.183H1056.6V490.825H1056.53C1055.77 491.944 1054.76 492.498 1053.5 492.498C1052.42 492.498 1051.52 492.183 1050.79 491.542C1050.06 490.902 1049.7 490.108 1049.7 489.152C1049.7 488.139 1050.08 487.336 1050.85 486.743C1051.61 486.141 1052.64 485.845 1053.91 485.845C1055 485.845 1055.9 486.045 1056.59 486.447V486.026C1056.59 485.386 1056.35 484.85 1055.84 484.401C1055.33 483.952 1054.74 483.732 1054.06 483.732C1053.04 483.732 1052.22 484.162 1051.63 485.032L1050.02 484.019C1050.91 482.728 1052.22 482.087 1053.96 482.087ZM1051.59 489.181C1051.59 489.659 1051.79 490.061 1052.21 490.376C1052.61 490.692 1053.09 490.854 1053.63 490.854C1054.4 490.854 1055.09 490.567 1055.7 489.994C1056.3 489.42 1056.6 488.751 1056.6 487.976C1056.03 487.527 1055.24 487.298 1054.21 487.298C1053.47 487.298 1052.85 487.479 1052.35 487.833C1051.84 488.206 1051.59 488.655 1051.59 489.181Z" fill="black"/>
<path d="M1068.33 482.403L1062.22 496.475H1060.32L1062.6 491.552L1058.56 482.403H1060.56L1063.47 489.42H1063.51L1066.34 482.403H1068.33Z" fill="black"/>
<path d="M1034.37 485.232C1034.37 484.634 1034.31 484.061 1034.22 483.511H1026.52V486.666L1030.95 486.666C1030.77 487.716 1030.19 488.611 1029.31 489.208V491.254H1031.95C1033.49 489.829 1034.37 487.722 1034.37 485.232Z" fill="#4285F4"/>
<path d="M1029.31 489.208C1028.57 489.703 1027.63 489.993 1026.52 489.993C1024.39 489.993 1022.57 488.553 1021.92 486.612H1019.2V488.723C1020.55 491.398 1023.32 493.234 1026.52 493.234C1028.74 493.234 1030.59 492.506 1031.95 491.254L1029.31 489.208Z" fill="#34A853"/>
<path d="M1021.67 485.046C1021.67 484.501 1021.76 483.974 1021.92 483.479V481.368H1019.2C1018.65 482.474 1018.33 483.723 1018.33 485.046C1018.33 486.369 1018.65 487.618 1019.2 488.724L1021.92 486.613C1021.76 486.118 1021.67 485.591 1021.67 485.046Z" fill="#FABB05"/>
<path d="M1026.52 480.099C1027.73 480.099 1028.81 480.515 1029.67 481.327L1032 478.992C1030.58 477.67 1028.73 476.858 1026.52 476.858C1023.32 476.858 1020.55 478.693 1019.2 481.368L1021.92 483.479C1022.57 481.539 1024.39 480.099 1026.52 480.099Z" fill="#E94235"/>
<defs>
<clipPath id="clip0_0_1">
<rect width="193.333" height="46.6667" fill="white" transform="translate(666.667 86.6667)"/>
</clipPath>
</defs>
</svg>
